<svg version="1.1" id="Layer_1" xmlns="http://www.w3.org/2000/svg" xmlns:xlink="http://www.w3.org/1999/xlink" x="0px" y="0px"
	 width="100%" viewBox="0 0 447 447" enable-background="new 0 0 447 447" xml:space="preserve">
<path fill="#000000" opacity="1.000000" stroke="none" 
	d="
M245.000000,448.000000 
	C163.356018,448.000000 82.212029,448.000000 1.034020,448.000000 
	C1.034020,299.064331 1.034020,150.128632 1.034020,1.096472 
	C149.893997,1.096472 298.788086,1.096472 447.841064,1.096472 
	C447.841064,149.999863 447.841064,298.999908 447.841064,448.000000 
	C380.461945,448.000000 312.980957,448.000000 245.000000,448.000000 
M123.077141,208.542587 
	C121.830177,210.312607 120.568405,212.072418 119.339050,213.854584 
	C115.745537,219.064056 111.927956,224.137894 108.637337,229.532745 
	C104.206070,236.797684 106.955177,241.409363 115.463898,241.536880 
	C116.963539,241.559357 118.463783,241.541931 119.963753,241.541946 
	C168.129333,241.542191 216.295090,241.494003 264.459991,241.673767 
	C267.089355,241.683578 270.751556,242.914688 272.009033,244.836304 
	C273.019470,246.380417 271.756500,250.246384 270.392273,252.368546 
	C263.821533,262.589844 256.933838,272.610229 250.036911,282.618011 
	C246.380692,287.923370 242.755615,287.871155 239.119308,282.671356 
	C233.491104,274.623138 227.810593,266.609589 222.318939,258.468842 
	C220.348602,255.548050 217.998413,254.283890 214.435562,254.330475 
	C202.437881,254.487381 190.436844,254.377686 178.437195,254.408920 
	C177.196838,254.412140 175.957169,254.675766 174.132309,254.885941 
	C178.055237,261.738953 181.210648,268.372192 185.368698,274.302429 
	C197.317108,291.343231 209.307220,308.378662 221.965210,324.891693 
	C235.349899,342.352753 256.385590,341.942444 269.066010,324.114166 
	C285.667694,300.772736 301.772644,277.077911 318.082825,253.529251 
	C325.290192,243.123260 332.605988,232.788956 339.622467,222.255493 
	C343.587616,216.302826 340.972168,211.463654 333.850494,210.916763 
	C332.524841,210.814972 331.185028,210.895096 329.851746,210.895081 
	C281.519501,210.894699 233.187134,210.936539 184.855377,210.782654 
	C182.185333,210.774170 177.837128,209.758041 177.239380,208.124435 
	C176.292709,205.537170 176.974762,201.479767 178.515549,199.010162 
	C184.682404,189.125916 191.383194,179.570587 198.011780,169.980194 
	C202.076767,164.098831 206.488449,164.072388 210.699081,169.769119 
	C216.142807,177.134140 221.426239,184.619965 226.989197,191.892746 
	C228.207367,193.485336 230.291901,195.427704 232.013336,195.463074 
	C246.050247,195.751617 260.095673,195.625488 274.793030,195.625488 
	C269.495361,188.195312 264.583923,181.337448 259.704437,174.456894 
	C249.011200,159.378372 238.592773,144.096207 227.571411,129.261795 
	C218.191162,116.636299 204.115143,112.346878 191.499588,118.841949 
	C185.861023,121.744942 180.746201,126.791008 176.977249,132.008408 
	C158.847031,157.106400 141.257202,182.594772 123.077141,208.542587 
z"/>
<path fill="#EB9E43" opacity="1.000000" stroke="none" 
	d="
M123.276352,208.243561 
	C141.257202,182.594772 158.847031,157.106400 176.977249,132.008408 
	C180.746201,126.791008 185.861023,121.744942 191.499588,118.841949 
	C204.115143,112.346878 218.191162,116.636299 227.571411,129.261795 
	C238.592773,144.096207 249.011200,159.378372 259.704437,174.456894 
	C264.583923,181.337448 269.495361,188.195312 274.793030,195.625488 
	C260.095673,195.625488 246.050247,195.751617 232.013336,195.463074 
	C230.291901,195.427704 228.207367,193.485336 226.989197,191.892746 
	C221.426239,184.619965 216.142807,177.134140 210.699081,169.769119 
	C206.488449,164.072388 202.076767,164.098831 198.011780,169.980194 
	C191.383194,179.570587 184.682404,189.125916 178.515549,199.010162 
	C176.974762,201.479767 176.292709,205.537170 177.239380,208.124435 
	C177.837128,209.758041 182.185333,210.774170 184.855377,210.782654 
	C233.187134,210.936539 281.519501,210.894699 329.851746,210.895081 
	C331.185028,210.895096 332.524841,210.814972 333.850494,210.916763 
	C340.972168,211.463654 343.587616,216.302826 339.622467,222.255493 
	C332.605988,232.788956 325.290192,243.123260 318.082825,253.529251 
	C301.772644,277.077911 285.667694,300.772736 269.066010,324.114166 
	C256.385590,341.942444 235.349899,342.352753 221.965210,324.891693 
	C209.307220,308.378662 197.317108,291.343231 185.368698,274.302429 
	C181.210648,268.372192 178.055237,261.738953 174.132309,254.885941 
	C175.957169,254.675766 177.196838,254.412140 178.437195,254.408920 
	C190.436844,254.377686 202.437881,254.487381 214.435562,254.330475 
	C217.998413,254.283890 220.348602,255.548050 222.318939,258.468842 
	C227.810593,266.609589 233.491104,274.623138 239.119308,282.671356 
	C242.755615,287.871155 246.380692,287.923370 250.036911,282.618011 
	C256.933838,272.610229 263.821533,262.589844 270.392273,252.368546 
	C271.756500,250.246384 273.019470,246.380417 272.009033,244.836304 
	C270.751556,242.914688 267.089355,241.683578 264.459991,241.673767 
	C216.295090,241.494003 168.129333,241.542191 119.963753,241.541946 
	C118.463783,241.541931 116.963539,241.559357 115.463898,241.536880 
	C106.955177,241.409363 104.206070,236.797684 108.637337,229.532745 
	C111.927956,224.137894 115.745537,219.064056 119.339050,213.854584 
	C120.568405,212.072418 121.830177,210.312607 123.276352,208.243561 
z"/>
</svg>